M48
INCH
T01C0.0191
T02C0.022
T03C0.0354
T04C0.0433
T05C0.0551
%
T01
X+010322Y+021508
X+010262Y+020292
X+007588Y+020248
X+007068Y+024987
X+006278Y+024987
X+012124Y+026643
X+013081Y+020853
X+013611Y+020292
X+010127Y+015383
X+020078Y+004570
T02
X+016430Y+009021
X+016430Y+012021
T03
X+011615Y+019127
X+011615Y+018127
X+011615Y+017127
X+011615Y+016127
X+011615Y+015127
X+011615Y+014127
X+011615Y+013127
X+011615Y+012127
X+011615Y+011127
X+011615Y+010127
X+011615Y+009127
X+011615Y+008127
X+011615Y+007127
X+011615Y+006127
X+014615Y+006127
X+014615Y+007127
X+014615Y+008127
X+014615Y+009127
X+014615Y+010127
X+014615Y+011127
X+014615Y+012127
X+014615Y+013127
X+014615Y+014127
X+014615Y+015127
X+014615Y+016127
X+014615Y+017127
X+014615Y+018127
X+014615Y+019127
T04
X+008598Y+025853
X+009598Y+025853
X+009598Y+024853
X+008598Y+024853
X+008598Y+023853
X+009598Y+023853
X+009598Y+022853
X+008598Y+022853
X+008598Y+021853
X+009598Y+021853
X+009598Y+020853
X+008598Y+020853
X+008598Y+019853
X+009598Y+019853
X+009598Y+018853
X+008598Y+018853
X+008598Y+017853
X+009598Y+017853
X+009598Y+016853
X+008598Y+016853
X+008598Y+015853
X+009598Y+015853
X+009598Y+014853
X+008598Y+014853
X+008598Y+013853
X+009598Y+013853
X+009598Y+012853
X+008598Y+012853
X+008598Y+011853
X+009598Y+011853
X+009598Y+010853
X+008598Y+010853
X+008598Y+009853
X+009598Y+009853
X+009582Y+007277
X+009582Y+006277
X+017029Y+007066
X+018029Y+007066
X+019029Y+007066
X+005884Y+017718
X+005884Y+018718
X+005884Y+019718
X+005884Y+020718
T05
X+016664Y+015422
X+016664Y+014044
T00
M30
