G04 DipTrace 3.1.0.1*
G04 TopSilk.gbr*
%MOIN*%
G04 #@! TF.FileFunction,Legend,Top*
G04 #@! TF.Part,Single*
%ADD10C,0.009843*%
%ADD45C,0.00772*%
%FSLAX26Y26*%
G04*
G70*
G90*
G75*
G01*
G04 TopSilk*
%LPD*%
X1209093Y1971388D2*
D10*
Y554066D1*
X1413821Y1971388D2*
Y554066D1*
X1209093D2*
X1413821D1*
X1209093Y1971388D2*
X1287826D1*
X1413821D2*
X1335088D1*
X1287826D2*
G03X1335088Y1971388I23631J103D01*
G01*
X1009757Y2635327D2*
X809757D1*
Y935327D1*
X1009757D1*
Y2635327D1*
X1721475Y1599311D2*
Y1347343D1*
X1611239D1*
Y1599311D1*
X1721475D1*
X1952838Y656622D2*
X1652876D1*
Y756627D1*
X1952838D1*
Y656622D1*
X908152Y577715D2*
X1008157D1*
Y777739D1*
X908152D1*
Y577715D1*
X1612957Y971977D2*
X1672957D1*
X1612957Y1132277D2*
Y971977D1*
Y1132277D2*
X1672957D1*
Y971977D1*
X638362Y2121845D2*
X538357D1*
Y1721809D1*
X638362D1*
Y2121845D1*
X1280994Y2044612D2*
D45*
Y2008742D1*
X1283371Y2001557D1*
X1288179Y1996803D1*
X1295364Y1994372D1*
X1300117D1*
X1307302Y1996803D1*
X1312111Y2001557D1*
X1314487Y2008742D1*
Y2044612D1*
X1329927Y2034995D2*
X1334735Y2037426D1*
X1341920Y2044556D1*
Y1994372D1*
X897257Y2708550D2*
Y2670304D1*
X894880Y2663119D1*
X892448Y2660742D1*
X887695Y2658310D1*
X882886D1*
X878133Y2660742D1*
X875757Y2663119D1*
X873325Y2670304D1*
Y2675057D1*
X915128Y2696557D2*
Y2698933D1*
X917504Y2703742D1*
X919881Y2706118D1*
X924689Y2708495D1*
X934251D1*
X939004Y2706118D1*
X941381Y2703742D1*
X943813Y2698933D1*
Y2694180D1*
X941381Y2689372D1*
X936627Y2682242D1*
X912696Y2658310D1*
X946189D1*
X1664606Y1672534D2*
Y1634288D1*
X1662230Y1627103D1*
X1659798Y1624726D1*
X1655045Y1622294D1*
X1650236D1*
X1645483Y1624726D1*
X1643107Y1627103D1*
X1640675Y1634288D1*
Y1639041D1*
X1680046Y1662917D2*
X1684854Y1665349D1*
X1692039Y1672479D1*
Y1622294D1*
X1790357Y829850D2*
Y791604D1*
X1787980Y784419D1*
X1785548Y782042D1*
X1780795Y779610D1*
X1775986D1*
X1771233Y782042D1*
X1768857Y784419D1*
X1766425Y791604D1*
Y796357D1*
X1810604Y829795D2*
X1836857D1*
X1822542Y810672D1*
X1829727D1*
X1834481Y808295D1*
X1836857Y805918D1*
X1839289Y798733D1*
Y793980D1*
X1836857Y786795D1*
X1832104Y781987D1*
X1824919Y779610D1*
X1817734D1*
X1810604Y781987D1*
X1808228Y784419D1*
X1805796Y789172D1*
X919468Y890320D2*
Y852074D1*
X917092Y844889D1*
X914660Y842512D1*
X909907Y840080D1*
X905098D1*
X900345Y842512D1*
X897968Y844889D1*
X895537Y852074D1*
Y856827D1*
X958839Y840080D2*
Y890265D1*
X934907Y856827D1*
X970777D1*
X1563666Y1021664D2*
Y1043164D1*
X1561234Y1050349D1*
X1558857Y1052781D1*
X1554104Y1055157D1*
X1549296D1*
X1544542Y1052781D1*
X1542111Y1050349D1*
X1539734Y1043164D1*
Y1021664D1*
X1589974D1*
X1563666Y1038411D2*
X1589974Y1055157D1*
X1549351Y1070597D2*
X1546919Y1075405D1*
X1539789Y1082590D1*
X1589974D1*
X600857Y2234420D2*
Y2196174D1*
X598480Y2188989D1*
X596048Y2186612D1*
X591295Y2184180D1*
X586486D1*
X581733Y2186612D1*
X579357Y2188989D1*
X576925Y2196174D1*
Y2200927D1*
X644981Y2234365D2*
X621104D1*
X618728Y2212865D1*
X621104Y2215242D1*
X628289Y2217674D1*
X635419D1*
X642604Y2215242D1*
X647413Y2210488D1*
X649789Y2203303D1*
Y2198550D1*
X647413Y2191365D1*
X642604Y2186557D1*
X635419Y2184180D1*
X628289D1*
X621104Y2186557D1*
X618728Y2188989D1*
X616296Y2193742D1*
M02*
